<svg xmlns="http://www.w3.org/2000/svg" viewBox="0 0 1200 800"><rect width="1200" height="800" fill="#fbfaf7"/><text x="600" y="46" text-anchor="middle" font-family="Arial,sans-serif" font-size="31" font-weight="800" fill="#2f2b28">M10 • PODER JUDICIÁRIO II</text><path d="M600 295 C690 295 745 345 745 405 C745 465 690 505 600 505 C510 505 455 465 455 405 C455 345 510 295 600 295Z" fill="#6d5b88"/><text x="600" y="390" text-anchor="middle" font-family="Arial,sans-serif" font-size="28" font-weight="800" fill="white">CNJ • STJ • JT • JF • ESTADOS</text><text x="600" y="425" text-anchor="middle" font-family="Arial,sans-serif" font-size="17" fill="#efeaf5">BASE COMPLETA • Direito Constitucional</text><g stroke="#b8aaca" stroke-width="4" fill="none" stroke-linecap="round"><path d="M370 205 C470 245 500 300 525 340"/><path d="M580 240 C585 275 590 305 595 330"/><path d="M820 205 C735 250 700 300 675 340"/><path d="M375 565 C470 530 505 500 535 470"/><path d="M585 520 C590 500 592 485 594 474"/><path d="M825 565 C735 530 695 500 665 470"/></g><rect x="70" y="95" rx="26" width="300" height="170" fill="#f7e9f2"/><text x="94" y="135" font-family="Arial,sans-serif" font-size="23" font-weight="700" fill="#2f2b28">CNJ</text><text x="94" y="171" font-family="Arial,sans-serif" font-size="17" fill="#4f4a46">trativo, financeiro e disciplinar.</text><rect x="430" y="70" rx="26" width="300" height="170" fill="#fff1c9"/><text x="454" y="110" font-family="Arial,sans-serif" font-size="23" font-weight="700" fill="#2f2b28">STJ</text><text x="454" y="146" font-family="Arial,sans-serif" font-size="17" fill="#4f4a46">; competências e recurso especial.</text><rect x="820" y="95" rx="26" width="300" height="170" fill="#e3f3e7"/><text x="844" y="135" font-family="Arial,sans-serif" font-size="23" font-weight="700" fill="#2f2b28">Justiça do Trabalho</text><text x="844" y="171" font-family="Arial,sans-serif" font-size="17" fill="#4f4a46">, TRTs, Juízes do Trabalho e CSJT.</text><rect x="80" y="480" rx="26" width="300" height="170" fill="#e8eefc"/><text x="104" y="520" font-family="Arial,sans-serif" font-size="23" font-weight="700" fill="#2f2b28">Justiça Federal</text><text x="104" y="556" font-family="Arial,sans-serif" font-size="17" fill="#4f4a46">Juízes Federais; arts. 106 a 110.</text><rect x="435" y="520" rx="26" width="300" height="170" fill="#efe8f8"/><text x="459" y="560" font-family="Arial,sans-serif" font-size="23" font-weight="700" fill="#2f2b28">TRF e art. 109</text><text x="459" y="596" font-family="Arial,sans-serif" font-size="17" fill="#4f4a46">rias, recursais e causas federais.</text><rect x="825" y="480" rx="26" width="300" height="170" fill="#e4f4f2"/><text x="849" y="520" font-family="Arial,sans-serif" font-size="23" font-weight="700" fill="#2f2b28">Justiça dos Estados</text><text x="849" y="556" font-family="Arial,sans-serif" font-size="17" fill="#4f4a46">e estadual e conflitos fundiários.</text></svg>